<?xml version="1.0" encoding="utf-8"?>
<!-- Generator: Adobe Illustrator 15.0.0, SVG Export Plug-In . SVG Version: 6.00 Build 0)  -->
<!DOCTYPE svg PUBLIC "-//W3C//DTD SVG 1.1//EN" "http://www.w3.org/Graphics/SVG/1.1/DTD/svg11.dtd">
<svg version="1.1" id="Layer_1" xmlns="http://www.w3.org/2000/svg" xmlns:xlink="http://www.w3.org/1999/xlink" x="0px" y="0px"
         width="121.228px" height="223.404px" viewBox="0 0 121.228 223.404" enable-background="new 0 0 121.228 223.404"
         xml:space="preserve">
<path opacity="0.3" fill="#FFFFFF" d="M72.463,29.876c0,0-10.394,6.685-13.286,18.728C53.338,55.08,43.145,64.02,44.994,66.998
        c1.545,2.454,12.993,6.685,12.993,6.685l1.838,16.408c0,0-13.609,15.553-8.429,30.467c-3.237,8.429-10.946,28.107-8.997,33.288
        c-18.185,16.712-18.927,16.712-21.898,25.244c-6.56,12.629-17.072,19.909-20.315,20.557c-1.295,5.18,4.538,7.781,7.129,9.723
        c2.596,1.954,2.282,11.239,8.435,12.962c12.543,3.53,12.92-2.777,12.92-2.777s-6.685-2.978-7.739-6.288
        c-1.85-5.838-3.238-11.678-3.238-11.678s14.904-21.391,22.686-27.229c7.782-5.828,12.314-9.066,12.314-9.066
        c5.839-7.791,17.506-35.658,18.806-38.906c3.238,0.658,7.274,5.932,27.225,12.973c-7.128,3.237-16.857,8.429-20.748,14.257
        c-10.367,7.781-20.738,10.371-20.738,10.371s-8.43,0-0.647,10.372c3.237,12.314,5.186,20.096,9.724,22.038
        c3.886,0.658,8.429,3.906,2.591-8.419c0-4.543-0.648-14.257-0.648-14.257s23.141-15.792,44.668-21.358
        c7.775-4.533,9.279-7.793,7.797-10.393c-2.602-4.533-12.921-23.365-25.883-29.193c-6.485-3.886-10.121-7.552-10.121-7.552
        s-2.967-9.275,3.636-29.401c11.582-6.979,20.116-12.545,20.116-12.545l-1.128-1.442l0.016-1.89l-3.337-2.977l-4.085,0.741
        c0,0-2.601,4.826-5.942,7.062c-0.261,0.166-4.826,1.858-4.826,1.858s2.967-18.56-7.948-27.762c6.288-10.853,4.471-8.073,6.659-8.209
        c6.172-0.377,6.115-6.268,6.115-8.199c0-1.944,1.859-2.226,1.859-2.226c-2.172-10.131-1.117,1.954-1.117-9.65
        C92.872,3.9,88.329-1.019,79.89,0.181c-4.544,0.648-8.91,2.812-8.91,14.477C77.289,30.252,72.463,29.876,72.463,29.876z"/>
</svg>
