<?xml version="1.0" encoding="utf-8"?>
<!-- Generator: Adobe Illustrator 16.0.0, SVG Export Plug-In . SVG Version: 6.00 Build 0)  -->
<!DOCTYPE svg PUBLIC "-//W3C//DTD SVG 1.1//EN" "http://www.w3.org/Graphics/SVG/1.1/DTD/svg11.dtd">
<svg version="1.1" id="Layer_1" xmlns="http://www.w3.org/2000/svg" xmlns:xlink="http://www.w3.org/1999/xlink" x="0px" y="0px"
	 width="62.717px" height="62.665px" viewBox="0 0 62.717 62.665" enable-background="new 0 0 62.717 62.665" xml:space="preserve">
<g opacity="0.85">
	<path fill="#FAA61A" d="M32.139,15.49c0,0-1.943,1.25-2.484,3.501c-1.091,1.212-2.998,2.884-2.652,3.439
		c0.289,0.46,2.43,1.25,2.43,1.25l0.343,3.069c0,0-2.545,2.908-1.576,5.696c-0.605,1.576-2.046,5.257-1.683,6.226
		c-3.4,3.124-3.539,3.124-4.095,4.72c-1.226,2.362-3.192,3.724-3.798,3.844c-0.243,0.97,0.848,1.455,1.333,1.819
		c0.485,0.364,0.427,2.101,1.577,2.424c2.346,0.659,2.416-0.521,2.416-0.521s-1.249-0.556-1.447-1.176
		c-0.346-1.091-0.605-2.184-0.605-2.184s2.787-4,4.243-5.091c1.455-1.091,2.303-1.696,2.303-1.696
		c1.091-1.456,3.273-6.667,3.516-7.274c0.605,0.122,1.36,1.109,5.091,2.425c-1.333,0.606-3.152,1.576-3.88,2.667
		c-1.939,1.455-3.878,1.939-3.878,1.939s-1.576,0-0.121,1.939c0.606,2.303,0.97,3.758,1.819,4.121
		c0.727,0.122,1.576,0.729,0.485-1.574c0-0.85-0.121-2.667-0.121-2.667s4.327-2.952,8.352-3.993
		c1.454-0.848,1.735-1.458,1.458-1.943c-0.486-0.848-2.416-4.369-4.84-5.459c-1.213-0.728-1.893-1.413-1.893-1.413
		s-0.555-1.734,0.68-5.497c2.166-1.305,3.762-2.346,3.762-2.346l-0.211-0.27l0.003-0.354l-0.624-0.556l-0.764,0.138
		c0,0-0.486,0.903-1.111,1.32c-0.049,0.032-0.902,0.348-0.902,0.348s0.555-3.471-1.486-5.19c1.176-2.029,0.836-1.51,1.245-1.535
		c1.154-0.07,1.144-1.172,1.144-1.534c0-0.363,0.348-0.416,0.348-0.416c-0.406-1.894-0.209,0.365-0.209-1.805
		c-0.348-1.25-1.197-2.169-2.775-1.944c-0.85,0.121-1.666,0.525-1.666,2.707C33.042,15.56,32.139,15.49,32.139,15.49z"/>
	<path fill-rule="evenodd" clip-rule="evenodd" fill="#FAA61A" d="M31.384,0c17.241,0,31.333,14.092,31.333,31.332
		c0,17.293-14.092,31.333-31.333,31.333l0,0v-5.833l0,0c13.989,0,25.447-11.459,25.447-25.5c0-14.04-11.458-25.447-25.447-25.447
		l0,0V0L31.384,0z M31.384,62.665C14.092,62.665,0,48.625,0,31.332C0,14.092,14.092,0,31.384,0v5.885
		c-14.04,0-25.499,11.407-25.499,25.447c0,14.041,11.459,25.5,25.499,25.5V62.665z"/>
</g>
</svg>
