<?xml version="1.0" encoding="utf-8"?>
<!-- Generator: Adobe Illustrator 16.0.0, SVG Export Plug-In . SVG Version: 6.00 Build 0)  -->
<!DOCTYPE svg PUBLIC "-//W3C//DTD SVG 1.1//EN" "http://www.w3.org/Graphics/SVG/1.1/DTD/svg11.dtd">
<svg version="1.1" id="Layer_1" xmlns="http://www.w3.org/2000/svg" xmlns:xlink="http://www.w3.org/1999/xlink" x="0px" y="0px"
	 width="62.233px" height="62.182px" viewBox="0 0 62.233 62.182" enable-background="new 0 0 62.233 62.182" xml:space="preserve">
<g opacity="0.85">
	<path fill-rule="evenodd" clip-rule="evenodd" fill="#FAA61A" d="M31.142,0C48.25,0,62.233,13.983,62.233,31.091
		c0,17.159-13.983,31.091-31.091,31.091l0,0v-5.787l0,0c13.881,0,25.251-11.371,25.251-25.304c0-13.881-11.37-25.252-25.251-25.252
		l0,0V0L31.142,0z M31.142,62.182C13.983,62.182,0,48.25,0,31.091C0,13.983,13.983,0,31.142,0v5.839
		C17.21,5.839,5.838,17.21,5.838,31.091c0,13.933,11.372,25.304,25.304,25.304V62.182z"/>
	<path fill-rule="evenodd" clip-rule="evenodd" fill="#FAA61A" d="M34.472,20.283l8.452-0.41l6.3,4.303l-14.752,0.973V20.283
		L34.472,20.283z M34.472,44.46v-3.329c0.716-0.052,1.434-0.154,2.202-0.205c-0.051-1.179-0.051-2.357-0.051-3.535
		c1.28-0.051,2.459-0.205,3.688-0.256c0-1.076,0-2.203,0.051-3.278c-1.279,0.052-2.458,0.205-3.738,0.256c0-1.229,0-2.51-0.052-3.79
		c-0.666,0-1.384,0.102-2.1,0.153V26.43l14.854-1.127l-1.537,17.723L34.472,44.46L34.472,44.46z M34.472,18.389
		c0.256,0,0.461,0,0.716,0c0,1.178,0.155,2.356,0.155,3.534c0,0.666,0.614,1.332,1.178,1.332c0.921-0.052,1.844-0.052,2.765-0.102
		c0.719,0,1.281-0.667,1.333-1.435c0-0.716-0.563-1.075-1.281-1.024c-0.562,0-1.126,0-1.688,0.051c0-1.281-0.155-2.612-0.155-3.893
		c0-0.718-0.563-1.435-1.178-1.435s-1.229,0.051-1.844,0.051V18.389z M16.903,21.103l17.569-0.82v4.866l-14.957,1.024l-2.612-2.714
		V21.103L16.903,21.103z M34.472,15.468c-0.87,0.052-1.69,0.103-2.612,0.103c-1.537,0.051-2.919,0.154-4.456,0.205
		c-0.615,0.051-1.178,0.769-1.127,1.537c0.052,1.332-0.103,2.612-0.051,3.893c-0.614,0.051-1.281,0.051-1.896,0.103
		c-0.717,0-1.28,0.409-1.229,1.178c0.051,0.769,0.666,1.332,1.384,1.332c1.024-0.052,1.997-0.103,3.021-0.154
		c0.563,0,1.127-0.716,1.076-1.434c-0.051-1.179,0.153-2.356,0.102-3.534c2.101-0.103,3.791-0.205,5.789-0.307V15.468L34.472,15.468
		z M34.472,26.43v4.046c-0.462,0.051-0.923,0.103-1.331,0.103c0,1.332,0.051,2.561,0.051,3.841c-1.281,0.052-2.459,0.256-3.74,0.308
		c0.051,1.127,0.102,2.202,0.154,3.278c1.281-0.051,2.408-0.256,3.688-0.309c0,1.179,0.051,2.357,0.051,3.535
		c0.41,0,0.77-0.052,1.128-0.102v3.329l-14.188,1.485l-0.564-18.389L34.472,26.43L34.472,26.43z M16.903,42.36l2.099,3.637
		l-0.511-18.798l-1.588-1.844V42.36z M14.802,21.206l2.101-0.103v2.356L14.802,21.206L14.802,21.206z M16.903,25.354l-2.305-2.612
		l1.281,17.875l1.024,1.742V25.354z"/>
</g>
</svg>
