<?xml version="1.0" encoding="utf-8"?>
<!-- Generator: Adobe Illustrator 16.0.0, SVG Export Plug-In . SVG Version: 6.00 Build 0)  -->
<!DOCTYPE svg PUBLIC "-//W3C//DTD SVG 1.1//EN" "http://www.w3.org/Graphics/SVG/1.1/DTD/svg11.dtd">
<svg version="1.1" id="Layer_1" xmlns="http://www.w3.org/2000/svg" xmlns:xlink="http://www.w3.org/1999/xlink" x="0px" y="0px"
	 width="63.792px" height="63.74px" viewBox="0 0 63.792 63.74" enable-background="new 0 0 63.792 63.74" xml:space="preserve">
<g>
	<g>
		<path fill-rule="evenodd" clip-rule="evenodd" fill="#FAA61A" d="M31.923,0c17.536,0,31.87,14.334,31.87,31.87
			c0,17.589-14.334,31.87-31.87,31.87l0,0v-5.933l0,0c14.229,0,25.885-11.656,25.885-25.938c0-14.28-11.656-25.884-25.885-25.884
			l0,0V0L31.923,0z M31.923,63.74C14.334,63.74,0,49.459,0,31.87C0,14.334,14.334,0,31.923,0v5.986
			C17.642,5.986,5.986,17.59,5.986,31.87c0,14.281,11.655,25.938,25.937,25.938V63.74z"/>
	</g>
	<path fill="#FAA61A" d="M31.896,61.292c0,0-24.016-10.081-21.34-11.307c0,0,11.083-5.536,12.281-5.387l1.348-4.043h0.749
		l1.048-4.192c0,0-2.096-1.946-2.096-5.241c0,0-1.647-1.348-1.498-5.241c0,0,0.15-0.299,0.599,0l-0.15-8.086
		c0,0,2.695-7.636,13.926-7.786c0,0,0.898,0.449,0,1.198c0,0-0.998,0.449,0.399,1.498c0,0,3.644,1.797,3.942,4.192v8.685
		c0,0,0.898-0.449,1.049,0.149c0,0-0.3,4.792-1.049,5.391c0,0-0.748,0.749-0.748,2.096c0,0-0.6,1.647-1.498,2.546v4.791l1.797,3.594
		l13.326,5.99C53.982,50.14,38.279,59.792,31.896,61.292L31.896,61.292z"/>
</g>
</svg>
