<?xml version="1.0" encoding="utf-8"?>
<!-- Generator: Adobe Illustrator 16.0.0, SVG Export Plug-In . SVG Version: 6.00 Build 0)  -->
<!DOCTYPE svg PUBLIC "-//W3C//DTD SVG 1.1//EN" "http://www.w3.org/Graphics/SVG/1.1/DTD/svg11.dtd">
<svg version="1.1" id="Layer_1" xmlns="http://www.w3.org/2000/svg" xmlns:xlink="http://www.w3.org/1999/xlink" x="0px" y="0px"
         width="63.792px" height="63.74px" viewBox="0 0 63.792 63.74" enable-background="new 0 0 63.792 63.74" xml:space="preserve">
<g>
        <path fill-rule="evenodd" clip-rule="evenodd" fill="#FAA61A" d="M31.923,0c17.536,0,31.87,14.334,31.87,31.87
                c0,17.589-14.334,31.87-31.87,31.87l0,0v-5.933l0,0c14.229,0,25.885-11.656,25.885-25.938c0-14.28-11.656-25.884-25.885-25.884l0,0
                V0L31.923,0z M31.923,63.74C14.334,63.74,0,49.459,0,31.87C0,14.334,14.334,0,31.923,0v5.986C17.642,5.986,5.986,17.59,5.986,31.87
                c0,14.281,11.655,25.938,25.937,25.938V63.74z"/>
        <path fill-rule="evenodd" clip-rule="evenodd" fill="#FAA61A" d="M32.71,49.722L32.71,49.722v-4.306c0.105,0,0.158,0,0.211-0.104
                c0.367-0.524,2.678-7.929,3.15-10.081c0.84-3.885,2.363,2.572,3.412,1.838c0.893-0.631,2.783-3.256,3.098-3.308
                c0.996-0.21,2.205,1.68,2.939,2.31c1.051,0.893,2.311,1.104,3.047,1.104c0.629,0,4.357-0.893,6.666-1.471
                c-1.941-1.942-4.199-0.578-5.564-0.631c-0.631-0.052-2.047,0.421-2.625-0.156c-1.156-1.155-2.939-3.15-3.834-3.15
                c-0.787,0-3.621,2.992-3.779,2.783c-2.047-2.626-2.152-3.466-2.836-3.309c-0.682,0.158-3.201,8.4-3.885,10.605V26.199l0,0
                c0.42-0.209,0.316-0.944,0.578-1.784c0.314-0.998,1.521-2.835,2.783-3.833c1.312-0.945,2.992-1.312,4.566-1.312
                c2.469,0,4.727,1.312,5.775,3.412c1.365,2.678,1.104,6.406,0.105,9.188C44.052,38.591,37.802,44.366,32.71,49.722z M32.71,49.722
                C27.67,44.366,21.37,38.591,18.901,31.87c-0.996-2.782-1.26-6.511,0.105-9.188c1.103-2.1,3.309-3.412,5.775-3.412
                c1.575,0,3.256,0.367,4.568,1.312c1.312,0.998,2.468,2.835,2.782,3.833c0.263,0.84,0.157,1.575,0.578,1.784v15.646
                c0,0.053,0,0.105-0.053,0.105c-0.157-1.26-3.045-18.324-3.623-18.01c-1.103,0.631-2.625,10.764-3.15,11.184
                c-1.312-2.152-1.942-4.199-2.572-3.623c-0.473,0.525-3.36,2.416-5.407,3.15c-0.841,0.368-3.361-1.26-4.201-1.049
                c-1.103,0.209-2.836,0.682-4.673,1.574c1.575,1.523,2.625-1.417,6.563,0.684c1.312,0.682,1.89,0.893,2.625,0.893
                c1.154,0,5.093-2.941,5.355-2.783c1.732,1.26,1.889,3.465,2.362,5.408c1.837-4.463,1.837-4.411,2.678-9.818
                c0.893,3.99,1.837,8.715,2.521,12.548c0.314,1.786,1.103,3.151,1.575,3.308V49.722z"/>
</g>
</svg>
