<?xml version="1.0" encoding="utf-8"?>
<!-- Generator: Adobe Illustrator 16.0.0, SVG Export Plug-In . SVG Version: 6.00 Build 0)  -->
<!DOCTYPE svg PUBLIC "-//W3C//DTD SVG 1.1//EN" "http://www.w3.org/Graphics/SVG/1.1/DTD/svg11.dtd">
<svg version="1.1" id="Layer_1" xmlns="http://www.w3.org/2000/svg" xmlns:xlink="http://www.w3.org/1999/xlink" x="0px" y="0px"
         width="26.947px" height="22.77px" viewBox="0 0 26.947 22.77" enable-background="new 0 0 26.947 22.77" xml:space="preserve">
<g opacity="0.7">
        <g>
                <defs>
                        <rect id="SVGID_1_" width="26.947" height="22.77"/>
                </defs>
                <clipPath id="SVGID_2_">
                        <use xlink:href="#SVGID_1_"  overflow="visible"/>
                </clipPath>
                <path clip-path="url(#SVGID_2_)" fill="#FFFFFF" d="M4.242,1.918C4.496,1.763,4.711,1.909,5,1.841
                        c0.11-0.027,0.168-0.057,0.278-0.081c0.496-0.106,0.806,0.013,1.292,0.159C6.766,1.979,6.88,2.01,7.06,2.105
                        C7.091,2.121,7.111,2.129,7.143,2.15c0.028,0.019,0.042,0.032,0.068,0.054c0.421,0.359,0.157,0.851,0.284,1.389
                        c0.011,0.046,0.019,0.072,0.028,0.119c0.005,0.026,0.008,0.041,0.011,0.067c0.019,0.165-0.026,0.263-0.09,0.416
                        C7.438,4.211,7.434,4.22,7.426,4.236c-0.101,0.215-0.283,0.24-0.466,0.393C6.8,4.765,6.72,4.853,6.552,4.976
                        C6.435,5.062,6.371,5.114,6.244,5.182c-0.15,0.081-0.249,0.099-0.407,0.162c-0.202,0.08-0.328,0.1-0.518,0.207
                        C5.28,5.574,5.258,5.588,5.218,5.612C5.195,5.628,5.18,5.636,5.158,5.651C5.092,5.697,5.057,5.728,4.995,5.776
                        C4.914,5.84,4.865,5.874,4.787,5.938C4.642,6.056,4.56,6.124,4.43,6.26C4.373,6.319,4.341,6.354,4.287,6.418
                        C4.208,6.511,4.166,6.568,4.096,6.67C4.075,6.699,4.065,6.715,4.045,6.745c-0.006,0.007-0.01,0.012-0.017,0.02
                        c-0.01,0.013-0.015,0.02-0.025,0.033C3.953,6.86,3.922,6.892,3.872,6.953c-0.004,0.004-0.005,0.008-0.01,0.014
                        c-0.03,0.032-0.047,0.056-0.087,0.07C3.772,7.038,3.77,7.038,3.766,7.04C3.67,7.068,3.616,7.089,3.532,7.146
                        C3.499,7.169,3.487,7.195,3.449,7.21C3.445,7.212,3.442,7.212,3.438,7.214C3.432,7.219,3.43,7.224,3.426,7.229
                        C3.417,7.237,3.415,7.24,3.408,7.249c-0.005,0.007-0.003,0.019-0.013,0.02c-0.012,0-0.009-0.018-0.011-0.028
                        c-0.001-0.006-0.001-0.01-0.003-0.016C3.378,7.216,3.373,7.212,3.368,7.204C3.365,7.197,3.361,7.192,3.359,7.185
                        C3.354,7.169,3.362,7.16,3.363,7.146c0.002-0.014,0.002-0.022,0.002-0.035c0-0.021,0-0.033,0.002-0.052
                        C3.37,7.036,3.366,7.021,3.378,7.001C3.383,6.993,3.386,6.99,3.392,6.982c0.095-0.12,0.15-0.188,0.22-0.324
                        c0.06-0.121,0.079-0.196,0.119-0.325c0.004-0.01,0.006-0.016,0.009-0.026c0.092-0.299,0.062-0.493,0.015-0.804
                        C3.743,5.419,3.736,5.371,3.714,5.29C3.708,5.267,3.703,5.254,3.697,5.232c-0.08-0.27-0.076-0.444-0.222-0.684
                        c-0.024-0.04-0.051-0.056-0.066-0.1c-0.019-0.056,0-0.093-0.002-0.153C3.392,4.03,3.257,3.893,3.268,3.627
                        C3.278,3.424,3.363,3.321,3.39,3.12C3.396,3.079,3.4,3.056,3.403,3.015C3.405,2.991,3.4,2.978,3.407,2.955
                        C3.414,2.93,3.426,2.918,3.438,2.894c0.17-0.317,0.299-0.483,0.551-0.74C4.083,2.057,4.126,1.989,4.242,1.918"/>
                <path clip-path="url(#SVGID_2_)" fill="#FFFFFF" d="M12.752,0.004c0.465,0.04,0.467,0.586,0.872,0.82
                        c0.156,0.091,0.266,0.101,0.419,0.196c0.747,0.457,0.77,1.174,0.958,2.029c0.084,0.381,0.125,0.603,0.117,0.992
                        c-0.003,0.074,0,0.117-0.009,0.191c-0.008,0.076-0.021,0.117-0.039,0.19c-0.293,1.29-1.338,1.578-2.16,2.613
                        c-0.063,0.079-0.096,0.126-0.162,0.205c-0.037,0.043-0.057,0.068-0.096,0.109c-0.226,0.24-0.402,0.329-0.701,0.473
                        c-0.028,0.015-0.045,0.022-0.074,0.036c-0.333,0.141-0.567-0.002-0.929-0.002c-0.303,0-0.476,0.025-0.777,0.001
                        C9.978,7.84,9.864,7.84,9.677,7.788C9.47,7.729,9.371,7.649,9.173,7.559c-0.243-0.11-0.365-0.22-0.625-0.28
                        C8.493,7.266,8.461,7.261,8.404,7.251C8.371,7.245,8.351,7.242,8.316,7.237C8.217,7.224,8.16,7.231,8.06,7.227
                        C7.934,7.221,7.863,7.215,7.736,7.215c-0.228-0.001-0.359,0-0.583,0.035C7.052,7.265,6.996,7.276,6.896,7.299
                        C6.748,7.334,6.665,7.36,6.521,7.41C6.48,7.425,6.457,7.435,6.417,7.449C6.404,7.452,6.398,7.454,6.385,7.458
                        C6.366,7.464,6.356,7.465,6.337,7.471c-0.089,0.023-0.14,0.032-0.23,0.053C6.101,7.526,6.095,7.528,6.088,7.53
                        C6.042,7.54,6.007,7.551,5.967,7.526C5.962,7.524,5.962,7.524,5.96,7.523c-0.09-0.058-0.147-0.087-0.253-0.102
                        C5.665,7.416,5.636,7.435,5.599,7.417C5.592,7.415,5.59,7.411,5.586,7.411C5.579,7.408,5.574,7.414,5.565,7.416
                        C5.555,7.418,5.548,7.419,5.54,7.421C5.528,7.425,5.522,7.436,5.51,7.432C5.495,7.426,5.521,7.406,5.528,7.39
                        C5.532,7.382,5.537,7.377,5.54,7.369c0.006-0.013,0.006-0.022,0.01-0.035c0.005-0.013,0.005-0.021,0.012-0.033
                        c0.009-0.02,0.022-0.023,0.036-0.04c0.012-0.014,0.019-0.023,0.031-0.038C5.647,7.2,5.656,7.187,5.675,7.164
                        C5.696,7.141,5.705,7.12,5.733,7.107C5.743,7.103,5.749,7.103,5.759,7.1c0.178-0.054,0.28-0.086,0.441-0.175
                        c0.165-0.089,0.241-0.164,0.389-0.278c0.013-0.009,0.019-0.015,0.032-0.024c0.403-0.32,0.551-0.596,0.825-1.032
                        c0.083-0.129,0.128-0.203,0.201-0.338c0.02-0.039,0.031-0.061,0.05-0.1C7.942,4.669,8.14,4.42,8.304,3.903
                        c0.028-0.088,0.028-0.145,0.068-0.229c0.05-0.107,0.112-0.148,0.179-0.245c0.333-0.47,0.374-0.833,0.735-1.281
                        c0.271-0.34,0.506-0.457,0.796-0.781c0.063-0.071,0.099-0.111,0.159-0.184c0.036-0.043,0.051-0.074,0.093-0.111
                        c0.039-0.037,0.068-0.048,0.114-0.078c0.6-0.4,0.976-0.589,1.661-0.813C12.356,0.1,12.494-0.019,12.752,0.004"/>
                <path clip-path="url(#SVGID_2_)" fill="#FFFFFF" d="M26.79,8.392c0.741,1-1.359,1.529-1.625,2.743
                        c-0.077,0.354-0.035,0.568-0.115,0.922c-0.486,2.15-2.406,2.544-4.306,3.669c-0.749,0.443-1.183,0.688-1.993,1.005
                        c-0.148,0.059-0.23,0.094-0.381,0.143c-0.152,0.047-0.241,0.064-0.396,0.101c-2.181,0.51-3.487-0.335-5.722-0.487
                        c-0.144-0.01-0.227-0.012-0.371-0.025c-0.078-0.006-0.121-0.01-0.198-0.021c-0.423-0.061-0.655-0.17-1.034-0.369
                        c-0.035-0.018-0.054-0.026-0.087-0.048c-0.365-0.214-0.377-0.543-0.621-0.89C9.742,14.844,9.6,14.7,9.427,14.393
                        c-0.113-0.195-0.187-0.306-0.256-0.521c-0.08-0.248-0.058-0.405-0.096-0.664c-0.049-0.329-0.011-0.531-0.127-0.844
                        c-0.025-0.063-0.041-0.1-0.069-0.164c-0.016-0.037-0.026-0.06-0.045-0.098c-0.054-0.105-0.099-0.158-0.163-0.259
                        c-0.08-0.126-0.121-0.201-0.207-0.323c-0.154-0.218-0.24-0.343-0.43-0.531C7.951,10.908,7.9,10.864,7.811,10.79
                        c-0.132-0.107-0.213-0.162-0.359-0.252c-0.04-0.024-0.066-0.036-0.105-0.062c-0.012-0.006-0.018-0.012-0.029-0.019
                        c-0.018-0.012-0.028-0.021-0.046-0.033c-0.08-0.062-0.121-0.102-0.202-0.165c-0.006-0.005-0.01-0.008-0.017-0.013
                        c-0.042-0.036-0.073-0.063-0.076-0.119c-0.001-0.003-0.001-0.006-0.001-0.011C6.97,9.981,6.963,9.899,6.902,9.779
                        c-0.022-0.044-0.06-0.06-0.069-0.11c-0.001-0.005,0.001-0.01-0.001-0.018C6.829,9.644,6.822,9.643,6.814,9.637
                        C6.806,9.63,6.8,9.624,6.79,9.618C6.781,9.612,6.769,9.615,6.764,9.602c-0.01-0.018,0.029-0.017,0.049-0.026
                        c0.011-0.005,0.018-0.005,0.027-0.01C6.856,9.558,6.864,9.549,6.88,9.54C6.894,9.53,6.9,9.522,6.917,9.517
                        C6.939,9.509,6.955,9.514,6.979,9.51C7,9.508,7.014,9.504,7.037,9.5c0.033-0.006,0.053-0.012,0.086-0.015
                        C7.159,9.48,7.184,9.465,7.215,9.48c0.012,0.005,0.016,0.011,0.026,0.017c0.171,0.116,0.276,0.18,0.471,0.247
                        C7.92,9.814,8.049,9.81,8.267,9.835c0.019,0.003,0.03,0.004,0.048,0.005c0.696,0.073,1.095-0.098,1.77-0.282
                        c0.227-0.061,0.354-0.1,0.577-0.178c0.066-0.024,0.103-0.039,0.168-0.063c0.896-0.334,1.436-0.448,2.282-0.891
                        c0.168-0.087,0.248-0.164,0.425-0.233c0.21-0.082,0.344-0.073,0.563-0.125c1.236-0.295,1.849-0.776,3.097-1.016
                        c0.991-0.191,1.579-0.088,2.577-0.232c0.246-0.036,0.385-0.057,0.627-0.099c0.152-0.026,0.233-0.063,0.386-0.069
                        c0.129-0.007,0.202,0.012,0.33,0.024c1.715,0.148,2.715,0.333,4.294,1.016C25.964,7.932,26.43,7.908,26.79,8.392"/>
                <path clip-path="url(#SVGID_2_)" fill="#FFFFFF" d="M4.651,22.739c-0.984-0.192-0.498-1.496-0.973-2.379
                        c-0.114-0.211-0.195-0.322-0.305-0.535c-0.596-1.14-0.639-1.912-0.896-3.17c-0.089-0.429-0.139-0.67-0.199-1.103
                        c-0.01-0.076-0.017-0.118-0.024-0.194c-0.007-0.074-0.01-0.117-0.014-0.19c-0.062-0.979,0.199-1.523,0.309-2.5
                        c0.008-0.072,0.012-0.113,0.021-0.185c0.005-0.039,0.007-0.061,0.014-0.1c0.032-0.199,0.073-0.309,0.155-0.493
                        c0.007-0.015,0.01-0.024,0.018-0.04c0.072-0.136,0.202-0.131,0.332-0.215c0.119-0.077,0.176-0.139,0.306-0.199
                        c0.085-0.041,0.134-0.071,0.228-0.084c0.117-0.016,0.181,0.025,0.298,0.04c0.163,0.022,0.256,0.081,0.417,0.055
                        c0.036-0.007,0.055-0.012,0.091-0.021c0.021-0.007,0.035-0.008,0.055-0.016c0.064-0.021,0.095-0.045,0.156-0.075
                        c0.081-0.039,0.127-0.058,0.204-0.101c0.155-0.085,0.241-0.137,0.373-0.251c0.065-0.056,0.1-0.09,0.159-0.152
                        c0.092-0.098,0.139-0.158,0.22-0.268c0.024-0.032,0.035-0.052,0.059-0.084c0.006-0.009,0.01-0.014,0.018-0.022
                        c0.011-0.015,0.019-0.022,0.03-0.035c0.057-0.065,0.093-0.098,0.15-0.161c0.005-0.006,0.007-0.008,0.013-0.014
                        c0.032-0.032,0.056-0.06,0.101-0.057c0.003,0,0.005,0,0.008,0.001c0.108,0.011,0.175,0.011,0.275-0.028
                        c0.042-0.016,0.057-0.05,0.102-0.051c0.004-0.001,0.008,0.001,0.014,0c0.008-0.003,0.009-0.011,0.015-0.017
                        c0.008-0.007,0.014-0.011,0.02-0.021c0.008-0.009,0.007-0.021,0.018-0.023c0.02-0.009,0.009,0.03,0.012,0.05
                        c0.002,0.011,0.001,0.017,0.004,0.027c0.004,0.017,0.01,0.026,0.015,0.042c0.005,0.015,0.01,0.023,0.012,0.039
                        c0.003,0.023-0.004,0.037-0.006,0.06c-0.001,0.022-0.001,0.035-0.003,0.057c-0.001,0.032,0,0.053-0.003,0.085
                        c-0.003,0.036,0.006,0.06-0.013,0.089c-0.007,0.011-0.013,0.013-0.019,0.022c-0.126,0.143-0.194,0.229-0.281,0.396
                        c-0.089,0.174-0.107,0.286-0.161,0.474c-0.006,0.015-0.008,0.024-0.011,0.039c-0.164,0.58-0.101,0.942-0.074,1.543
                        c0.01,0.201,0.018,0.314,0.041,0.515c0.006,0.06,0.011,0.093,0.017,0.152c0.101,0.816,0.105,1.286,0.285,2.09
                        c0.037,0.166,0.082,0.256,0.104,0.426c0.021,0.179-0.004,0.281,0,0.463c0.012,1.05,0.301,1.633,0.237,2.68
                        c-0.039,0.643-0.195,0.991-0.25,1.634c-0.014,0.16-0.02,0.248-0.028,0.408c-0.006,0.101,0.017,0.159-0.011,0.254
                        c-0.017,0.058-0.038,0.086-0.066,0.142c-0.269,0.524-0.527,0.945-1.111,1.022C4.932,22.782,4.826,22.774,4.651,22.739"/>
                <path clip-path="url(#SVGID_2_)" fill="#FFFFFF" d="M0.067,13.37c-0.21-0.442,0.134-0.758,0.157-1.248
                        c0.007-0.135,0.001-0.213,0.01-0.348c0.041-0.711,0.199-1.098,0.397-1.781C0.703,9.742,0.744,9.6,0.833,9.354
                        c0.015-0.043,0.022-0.067,0.04-0.11C0.889,9.203,0.899,9.18,0.916,9.14c0.23-0.522,0.523-0.723,0.847-1.191
                        c0.026-0.038,0.04-0.061,0.068-0.099c0.014-0.02,0.022-0.032,0.038-0.052c0.073-0.093,0.126-0.139,0.228-0.203
                        C2.107,7.589,2.11,7.586,2.12,7.581c0.081-0.041,0.133,0.05,0.218,0.081c0.081,0.03,0.132,0.033,0.207,0.076
                        c0.056,0.031,0.088,0.051,0.133,0.099C2.744,7.908,2.75,7.973,2.796,8.06c0.063,0.121,0.072,0.209,0.166,0.31
                        c0.017,0.02,0.029,0.029,0.047,0.047C3.022,8.429,3.028,8.436,3.04,8.445c0.035,0.028,0.06,0.036,0.1,0.058
                        c0.05,0.03,0.077,0.05,0.131,0.076c0.1,0.049,0.159,0.078,0.268,0.099c0.052,0.009,0.082,0.011,0.135,0.014
                        c0.083,0.003,0.13-0.003,0.215-0.016c0.025-0.004,0.037-0.007,0.063-0.011C3.959,8.664,3.963,8.664,3.97,8.663h0.029
                        c0.054-0.001,0.085,0.004,0.14,0.004h0.013C4.183,8.669,4.208,8.675,4.224,8.7c0.002,0.003,0.003,0.005,0.005,0.008
                        c0.043,0.077,0.068,0.127,0.142,0.176C4.398,8.901,4.424,8.896,4.442,8.92c0.004,0.005,0.004,0.009,0.007,0.011
                        c0.005,0.003,0.01,0.001,0.015,0.002c0.007,0,0.012,0.001,0.019,0c0.007,0,0.012-0.005,0.021-0.003
                        c0.016,0.005-0.01,0.026-0.019,0.043c-0.003,0.006-0.007,0.01-0.01,0.018C4.468,9.004,4.468,9.014,4.463,9.027
                        C4.458,9.04,4.458,9.048,4.45,9.06C4.442,9.075,4.432,9.079,4.421,9.092C4.41,9.104,4.403,9.112,4.393,9.125
                        C4.378,9.146,4.37,9.157,4.354,9.175C4.337,9.193,4.333,9.216,4.308,9.22C4.3,9.221,4.296,9.219,4.289,9.219
                        c-0.119,0-0.19,0.005-0.302,0.045C3.871,9.306,3.818,9.359,3.716,9.431c-0.007,0.004-0.012,0.008-0.02,0.014
                        c-0.318,0.23-0.413,0.458-0.623,0.789c-0.068,0.109-0.106,0.171-0.166,0.284c-0.018,0.034-0.028,0.053-0.047,0.087
                        c-0.224,0.433-0.382,0.664-0.564,1.118c-0.036,0.09-0.041,0.148-0.088,0.234c-0.043,0.078-0.084,0.113-0.136,0.185
                        c-0.285,0.406-0.292,0.744-0.631,1.103c-0.166,0.173-0.306,0.222-0.47,0.394c-0.04,0.042-0.062,0.065-0.099,0.108
                        c-0.023,0.028-0.027,0.058-0.059,0.072c-0.019,0.008-0.032,0.006-0.052,0.01c-0.233,0.031-0.399-0.062-0.557-0.235
                        C0.135,13.517,0.11,13.462,0.067,13.37"/>
        </g>
</g>
</svg>
