<?xml version="1.0" encoding="utf-8"?>
<!-- Generator: Adobe Illustrator 17.0.2, SVG Export Plug-In . SVG Version: 6.00 Build 0)  -->
<!DOCTYPE svg PUBLIC "-//W3C//DTD SVG 1.1//EN" "http://www.w3.org/Graphics/SVG/1.1/DTD/svg11.dtd">
<svg version="1.1" id="Layer_1" xmlns="http://www.w3.org/2000/svg" xmlns:xlink="http://www.w3.org/1999/xlink" x="0px" y="0px"
	 width="107.792px" height="91.089px" viewBox="-40.423 -34.155 107.792 91.089"
	 enable-background="new -40.423 -34.155 107.792 91.089" xml:space="preserve">
<g opacity="0.7">
	<g>
		<g>
			<defs>
				<rect id="SVGID_1_" x="-40.42" y="-34.155" width="107.788" height="91.08"/>
			</defs>
			<clipPath id="SVGID_2_">
				<use xlink:href="#SVGID_1_"  overflow="visible"/>
			</clipPath>
			<path clip-path="url(#SVGID_2_)" fill="#FFFFFF" d="M-23.452-26.483c1.016-0.62,1.876-0.036,3.032-0.308
				c0.44-0.108,0.672-0.228,1.112-0.324c1.984-0.424,3.224,0.052,5.168,0.636c0.784,0.24,1.24,0.364,1.96,0.744
				c0.124,0.064,0.204,0.096,0.332,0.18c0.112,0.076,0.168,0.128,0.272,0.216c1.684,1.436,0.628,3.404,1.136,5.556
				c0.044,0.184,0.076,0.288,0.112,0.476c0.02,0.104,0.032,0.164,0.044,0.268c0.076,0.66-0.104,1.052-0.36,1.664
				c-0.024,0.064-0.04,0.1-0.072,0.164c-0.404,0.86-1.132,0.96-1.864,1.572c-0.64,0.544-0.96,0.896-1.632,1.388
				c-0.468,0.344-0.724,0.552-1.232,0.824c-0.6,0.324-0.996,0.396-1.628,0.648c-0.808,0.32-1.312,0.4-2.072,0.828
				c-0.156,0.092-0.244,0.148-0.404,0.244c-0.092,0.064-0.152,0.096-0.24,0.156c-0.264,0.184-0.404,0.308-0.652,0.5
				c-0.324,0.256-0.52,0.392-0.832,0.648c-0.58,0.472-0.908,0.744-1.428,1.288c-0.228,0.236-0.356,0.376-0.572,0.632
				c-0.316,0.372-0.484,0.6-0.764,1.008c-0.084,0.116-0.124,0.18-0.204,0.3c-0.024,0.028-0.04,0.048-0.068,0.08
				c-0.04,0.052-0.06,0.08-0.1,0.132c-0.2,0.248-0.324,0.376-0.524,0.62c-0.016,0.016-0.02,0.032-0.04,0.056
				c-0.12,0.128-0.188,0.224-0.348,0.28c-0.012,0.004-0.02,0.004-0.036,0.012c-0.384,0.112-0.6,0.196-0.936,0.424
				c-0.132,0.092-0.18,0.196-0.332,0.256c-0.016,0.008-0.028,0.008-0.044,0.016c-0.024,0.02-0.032,0.04-0.048,0.06
				c-0.036,0.032-0.044,0.044-0.072,0.08c-0.02,0.028-0.012,0.076-0.052,0.08c-0.048,0-0.036-0.072-0.044-0.112
				c-0.004-0.024-0.004-0.04-0.012-0.064c-0.012-0.036-0.032-0.052-0.052-0.084c-0.012-0.028-0.028-0.048-0.036-0.076
				c-0.02-0.064,0.012-0.1,0.016-0.156c0.008-0.056,0.008-0.088,0.008-0.14c0-0.084,0-0.132,0.008-0.208
				c0.012-0.092-0.004-0.152,0.044-0.232c0.02-0.032,0.032-0.044,0.056-0.076c0.38-0.48,0.6-0.752,0.88-1.296
				c0.24-0.484,0.316-0.784,0.476-1.3c0.016-0.04,0.024-0.064,0.036-0.104c0.368-1.196,0.248-1.972,0.06-3.216
				c-0.048-0.336-0.076-0.528-0.164-0.852c-0.024-0.092-0.044-0.144-0.068-0.232c-0.32-1.08-0.304-1.776-0.888-2.736
				c-0.096-0.16-0.204-0.224-0.264-0.4c-0.076-0.224,0-0.372-0.008-0.612c-0.06-1.06-0.6-1.608-0.556-2.672
				c0.04-0.812,0.38-1.224,0.488-2.028c0.024-0.164,0.04-0.256,0.052-0.42c0.008-0.096-0.012-0.148,0.016-0.24
				c0.028-0.1,0.076-0.148,0.124-0.244c0.68-1.268,1.196-1.932,2.204-2.96C-24.088-25.927-23.917-26.199-23.452-26.483"/>
		</g>
		<g>
			<defs>
				<rect id="SVGID_3_" x="-40.42" y="-34.155" width="107.788" height="91.08"/>
			</defs>
			<clipPath id="SVGID_4_">
				<use xlink:href="#SVGID_3_"  overflow="visible"/>
			</clipPath>
			<path clip-path="url(#SVGID_4_)" fill="#FFFFFF" d="M10.587-34.139c1.86,0.16,1.868,2.344,3.488,3.28
				c0.624,0.364,1.064,0.404,1.676,0.784c2.988,1.828,3.08,4.696,3.832,8.116c0.336,1.524,0.5,2.412,0.468,3.968
				c-0.012,0.296,0,0.468-0.036,0.764c-0.032,0.304-0.084,0.468-0.156,0.76c-1.172,5.16-5.352,6.312-8.64,10.452
				c-0.252,0.316-0.384,0.504-0.648,0.82c-0.148,0.172-0.228,0.272-0.384,0.436C9.284-3.799,8.58-3.443,7.384-2.867
				c-0.112,0.06-0.18,0.088-0.296,0.144C5.755-2.159,4.819-2.731,3.371-2.731c-1.212,0-1.904,0.1-3.108,0.004
				c-0.772-0.068-1.228-0.068-1.976-0.276C-2.54-3.239-2.936-3.559-3.728-3.919c-0.972-0.44-1.46-0.88-2.5-1.12
				c-0.22-0.052-0.348-0.072-0.576-0.112c-0.132-0.024-0.212-0.036-0.352-0.056c-0.396-0.052-0.624-0.024-1.024-0.04
				c-0.504-0.024-0.788-0.048-1.296-0.048c-0.912-0.004-1.436,0-2.332,0.14c-0.404,0.06-0.628,0.104-1.028,0.196
				c-0.592,0.14-0.924,0.244-1.5,0.444c-0.164,0.06-0.256,0.1-0.416,0.156c-0.052,0.012-0.076,0.02-0.128,0.036
				c-0.076,0.024-0.116,0.028-0.192,0.052c-0.356,0.092-0.56,0.128-0.92,0.212c-0.024,0.008-0.048,0.016-0.076,0.024
				c-0.184,0.04-0.324,0.084-0.484-0.016c-0.02-0.008-0.02-0.008-0.028-0.012c-0.36-0.232-0.588-0.348-1.012-0.408
				c-0.168-0.02-0.284,0.056-0.432-0.016c-0.028-0.008-0.036-0.024-0.052-0.024c-0.028-0.012-0.048,0.012-0.084,0.02
				c-0.04,0.008-0.068,0.012-0.1,0.02c-0.048,0.016-0.072,0.06-0.12,0.044c-0.06-0.024,0.044-0.104,0.072-0.168
				c0.016-0.032,0.036-0.052,0.048-0.084c0.024-0.052,0.024-0.088,0.04-0.14c0.02-0.052,0.02-0.084,0.048-0.132
				c0.036-0.08,0.088-0.092,0.144-0.16c0.048-0.056,0.076-0.092,0.124-0.152c0.072-0.092,0.108-0.144,0.184-0.236
				c0.084-0.092,0.12-0.176,0.232-0.228c0.04-0.016,0.064-0.016,0.104-0.028c0.712-0.216,1.12-0.344,1.764-0.7
				c0.66-0.356,0.964-0.656,1.556-1.112c0.052-0.036,0.076-0.06,0.128-0.096c1.612-1.28,2.204-2.384,3.3-4.128
				c0.332-0.516,0.512-0.812,0.804-1.352c0.08-0.156,0.124-0.244,0.2-0.4c0.98-1.936,1.772-2.932,2.428-5
				c0.112-0.352,0.112-0.58,0.272-0.916c0.2-0.428,0.448-0.592,0.716-0.98c1.332-1.88,1.496-3.332,2.94-5.124
				c1.084-1.36,2.024-1.828,3.184-3.124c0.252-0.284,0.396-0.444,0.636-0.736c0.144-0.172,0.204-0.296,0.372-0.444
				c0.156-0.148,0.272-0.192,0.456-0.312c2.4-1.6,3.904-2.356,6.644-3.252C9.003-33.755,9.556-34.231,10.587-34.139"/>
		</g>
		<g>
			<defs>
				<rect id="SVGID_5_" x="-40.42" y="-34.155" width="107.788" height="91.08"/>
			</defs>
			<clipPath id="SVGID_6_">
				<use xlink:href="#SVGID_5_"  overflow="visible"/>
			</clipPath>
			<path clip-path="url(#SVGID_6_)" fill="#FFFFFF" d="M66.74-0.587c2.964,4-5.436,6.116-6.5,10.972
				c-0.308,1.416-0.14,2.272-0.46,3.688c-1.944,8.6-9.624,10.176-17.224,14.676c-2.996,1.772-4.732,2.752-7.972,4.02
				c-0.592,0.236-0.92,0.376-1.524,0.572c-0.608,0.188-0.964,0.256-1.584,0.404c-8.724,2.04-13.948-1.34-22.888-1.948
				c-0.576-0.04-0.908-0.048-1.484-0.1c-0.312-0.024-0.484-0.04-0.792-0.084c-1.692-0.244-2.62-0.68-4.136-1.476
				c-0.14-0.072-0.216-0.104-0.348-0.192c-1.46-0.856-1.508-2.172-2.484-3.56c-0.796-1.164-1.364-1.74-2.056-2.968
				c-0.452-0.78-0.748-1.224-1.024-2.084c-0.32-0.992-0.232-1.62-0.384-2.656c-0.196-1.316-0.044-2.124-0.508-3.376
				c-0.1-0.252-0.164-0.4-0.276-0.656c-0.064-0.148-0.104-0.24-0.18-0.392c-0.216-0.42-0.396-0.632-0.652-1.036
				c-0.32-0.504-0.484-0.804-0.828-1.292c-0.616-0.872-0.96-1.372-1.72-2.124c-0.332-0.324-0.536-0.5-0.892-0.796
				c-0.528-0.428-0.852-0.648-1.436-1.008c-0.16-0.096-0.264-0.144-0.42-0.248c-0.048-0.024-0.072-0.048-0.116-0.076
				c-0.072-0.048-0.112-0.084-0.184-0.132c-0.32-0.248-0.484-0.408-0.808-0.66c-0.024-0.02-0.04-0.032-0.068-0.052
				c-0.168-0.144-0.292-0.252-0.304-0.476c-0.004-0.012-0.004-0.024-0.004-0.044c-0.024-0.54-0.052-0.868-0.296-1.348
				c-0.088-0.176-0.24-0.24-0.276-0.44c-0.004-0.02,0.004-0.04-0.004-0.072c-0.012-0.028-0.04-0.032-0.072-0.056
				c-0.032-0.028-0.056-0.052-0.096-0.076c-0.036-0.024-0.084-0.012-0.104-0.064c-0.04-0.072,0.116-0.068,0.196-0.104
				c0.044-0.02,0.072-0.02,0.108-0.04c0.064-0.032,0.096-0.068,0.16-0.104c0.056-0.04,0.08-0.072,0.148-0.092
				c0.088-0.032,0.152-0.012,0.248-0.028c0.084-0.008,0.14-0.024,0.232-0.04c0.132-0.024,0.212-0.048,0.344-0.06
				c0.144-0.02,0.244-0.08,0.368-0.02c0.048,0.02,0.064,0.044,0.104,0.068c0.684,0.464,1.104,0.72,1.884,0.988
				c0.832,0.28,1.348,0.264,2.22,0.364c0.076,0.012,0.12,0.016,0.192,0.02c2.784,0.292,4.38-0.392,7.08-1.128
				c0.908-0.244,1.416-0.4,2.308-0.712C2.492,3.269,2.64,3.209,2.9,3.113c3.584-1.336,5.744-1.792,9.128-3.564
				c0.672-0.348,0.992-0.656,1.7-0.932c0.84-0.328,1.376-0.292,2.252-0.5c4.944-1.18,7.396-3.104,12.388-4.064
				c3.964-0.764,6.316-0.352,10.308-0.928c0.984-0.144,1.54-0.228,2.508-0.396c0.608-0.104,0.932-0.252,1.544-0.276
				c0.516-0.028,0.808,0.048,1.32,0.096c6.86,0.592,10.86,1.332,17.176,4.064C63.436-2.427,65.299-2.523,66.74-0.587"/>
		</g>
		<g>
			<defs>
				<rect id="SVGID_7_" x="-40.42" y="-34.155" width="107.788" height="91.08"/>
			</defs>
			<clipPath id="SVGID_8_">
				<use xlink:href="#SVGID_7_"  overflow="visible"/>
			</clipPath>
			<path clip-path="url(#SVGID_8_)" fill="#FFFFFF" d="M-21.816,56.801c-3.936-0.768-1.992-5.984-3.892-9.516
				c-0.456-0.844-0.78-1.288-1.22-2.14c-2.384-4.56-2.556-7.648-3.584-12.68c-0.356-1.716-0.556-2.68-0.796-4.412
				c-0.04-0.304-0.068-0.472-0.096-0.776c-0.028-0.296-0.04-0.468-0.056-0.76c-0.248-3.916,0.796-6.092,1.236-10
				c0.032-0.288,0.048-0.452,0.084-0.74c0.02-0.156,0.028-0.244,0.056-0.4c0.128-0.796,0.292-1.236,0.62-1.972
				c0.028-0.06,0.04-0.096,0.072-0.16c0.288-0.544,0.808-0.524,1.328-0.86c0.476-0.308,0.704-0.556,1.224-0.796
				c0.34-0.164,0.536-0.284,0.912-0.336c0.468-0.064,0.724,0.1,1.192,0.16c0.652,0.088,1.024,0.324,1.668,0.22
				c0.144-0.028,0.22-0.048,0.364-0.084c0.084-0.028,0.14-0.032,0.22-0.064c0.256-0.084,0.38-0.18,0.624-0.3
				c0.324-0.156,0.508-0.232,0.816-0.404c0.62-0.34,0.964-0.548,1.492-1.004c0.26-0.224,0.4-0.36,0.636-0.608
				c0.368-0.392,0.556-0.632,0.88-1.072c0.096-0.128,0.14-0.208,0.236-0.336c0.024-0.036,0.04-0.056,0.072-0.088
				c0.044-0.06,0.076-0.088,0.12-0.14c0.228-0.26,0.372-0.392,0.6-0.644c0.02-0.024,0.028-0.032,0.052-0.056
				c0.128-0.128,0.224-0.24,0.404-0.228c0.012,0,0.02,0,0.032,0.004c0.432,0.044,0.7,0.044,1.1-0.112
				c0.168-0.064,0.228-0.2,0.408-0.204c0.016-0.004,0.032,0.004,0.056,0c0.032-0.012,0.036-0.044,0.06-0.068
				c0.032-0.028,0.056-0.044,0.08-0.084c0.032-0.036,0.028-0.084,0.072-0.092c0.08-0.036,0.036,0.12,0.048,0.2
				c0.008,0.044,0.004,0.068,0.016,0.108c0.016,0.068,0.04,0.104,0.06,0.168c0.02,0.06,0.04,0.092,0.048,0.156
				c0.012,0.092-0.016,0.148-0.024,0.24c-0.004,0.088-0.004,0.14-0.012,0.228c-0.004,0.128,0,0.212-0.012,0.34
				c-0.012,0.144,0.024,0.24-0.052,0.356c-0.028,0.044-0.052,0.052-0.076,0.088c-0.504,0.572-0.776,0.916-1.124,1.584
				c-0.356,0.696-0.428,1.144-0.644,1.896c-0.024,0.06-0.032,0.096-0.044,0.156c-0.656,2.32-0.404,3.768-0.296,6.172
				c0.04,0.804,0.072,1.256,0.164,2.06c0.024,0.24,0.044,0.372,0.068,0.608c0.404,3.264,0.42,5.144,1.14,8.36
				c0.148,0.664,0.328,1.024,0.416,1.704c0.084,0.716-0.016,1.124,0,1.852c0.048,4.2,1.204,6.532,0.948,10.72
				c-0.156,2.572-0.78,3.964-1,6.536c-0.056,0.64-0.08,0.992-0.112,1.632c-0.024,0.404,0.068,0.636-0.044,1.016
				c-0.068,0.232-0.152,0.344-0.264,0.568c-1.076,2.096-2.108,3.78-4.444,4.088C-20.692,56.973-21.116,56.941-21.816,56.801"/>
		</g>
		<g>
			<defs>
				<rect id="SVGID_9_" x="-40.42" y="-34.155" width="107.788" height="91.08"/>
			</defs>
			<clipPath id="SVGID_10_">
				<use xlink:href="#SVGID_9_"  overflow="visible"/>
			</clipPath>
			<path clip-path="url(#SVGID_10_)" fill="#FFFFFF" d="M-40.153,19.325c-0.84-1.768,0.536-3.032,0.628-4.992
				c0.028-0.54,0.004-0.852,0.04-1.392c0.164-2.844,0.796-4.392,1.588-7.124c0.288-1.004,0.452-1.572,0.808-2.556
				c0.06-0.172,0.088-0.268,0.16-0.44c0.064-0.164,0.104-0.256,0.172-0.416c0.92-2.088,2.092-2.892,3.388-4.764
				c0.104-0.152,0.16-0.244,0.272-0.396c0.056-0.08,0.088-0.128,0.152-0.208c0.292-0.372,0.504-0.556,0.912-0.812
				c0.04-0.024,0.052-0.036,0.092-0.056c0.324-0.164,0.532,0.2,0.872,0.324c0.324,0.12,0.528,0.132,0.828,0.304
				c0.224,0.124,0.352,0.204,0.532,0.396c0.264,0.284,0.288,0.544,0.472,0.892c0.252,0.484,0.288,0.836,0.664,1.24
				c0.068,0.08,0.116,0.116,0.188,0.188c0.052,0.048,0.076,0.076,0.124,0.112c0.14,0.112,0.24,0.144,0.4,0.232
				c0.2,0.12,0.308,0.2,0.524,0.304c0.4,0.196,0.636,0.312,1.072,0.396c0.208,0.036,0.328,0.044,0.54,0.056
				c0.332,0.012,0.52-0.012,0.86-0.064c0.1-0.016,0.148-0.028,0.252-0.044c0.028-0.004,0.044-0.004,0.072-0.008h0.116
				c0.216-0.004,0.34,0.016,0.56,0.016h0.052c0.124,0.008,0.224,0.032,0.288,0.132c0.008,0.012,0.012,0.02,0.02,0.032
				c0.172,0.308,0.272,0.508,0.568,0.704c0.108,0.068,0.212,0.048,0.284,0.144c0.016,0.02,0.016,0.036,0.028,0.044
				c0.02,0.012,0.04,0.004,0.06,0.008c0.028,0,0.048,0.004,0.076,0c0.028,0,0.048-0.02,0.084-0.012
				c0.064,0.02-0.04,0.104-0.076,0.172c-0.012,0.024-0.028,0.04-0.04,0.072c-0.028,0.052-0.028,0.092-0.048,0.144
				c-0.02,0.052-0.02,0.084-0.052,0.132c-0.032,0.06-0.072,0.076-0.116,0.128c-0.044,0.048-0.072,0.08-0.112,0.132
				c-0.06,0.084-0.092,0.128-0.156,0.2c-0.068,0.072-0.084,0.164-0.184,0.18c-0.032,0.004-0.048-0.004-0.076-0.004
				c-0.476,0-0.76,0.02-1.208,0.18c-0.464,0.168-0.676,0.38-1.084,0.668c-0.028,0.016-0.048,0.032-0.08,0.056
				c-1.272,0.92-1.652,1.832-2.492,3.156c-0.272,0.436-0.424,0.684-0.664,1.136c-0.072,0.136-0.112,0.212-0.188,0.348
				c-0.896,1.732-1.528,2.656-2.256,4.472c-0.144,0.36-0.164,0.592-0.352,0.936c-0.172,0.312-0.336,0.452-0.544,0.74
				c-1.14,1.624-1.168,2.976-2.524,4.412c-0.664,0.692-1.224,0.888-1.88,1.576c-0.16,0.168-0.248,0.26-0.396,0.432
				c-0.092,0.112-0.108,0.232-0.236,0.288c-0.076,0.032-0.128,0.024-0.208,0.04c-0.932,0.124-1.596-0.248-2.228-0.94
				C-39.881,19.913-39.98,19.693-40.153,19.325"/>
		</g>
	</g>
</g>
</svg>
