<?xml version="1.0" encoding="utf-8"?>
<!-- Generator: Adobe Illustrator 16.0.0, SVG Export Plug-In . SVG Version: 6.00 Build 0)  -->
<!DOCTYPE svg PUBLIC "-//W3C//DTD SVG 1.1//EN" "http://www.w3.org/Graphics/SVG/1.1/DTD/svg11.dtd">
<svg version="1.1" id="Layer_1" xmlns="http://www.w3.org/2000/svg" xmlns:xlink="http://www.w3.org/1999/xlink" x="0px" y="0px"
         width="32px" height="32px" viewBox="0 0 32 32" enable-background="new 0 0 32 32" xml:space="preserve">
<g>
        <path fill="#066C9A" d="M16.959,14.824v-0.033c-0.006,0.012-0.015,0.023-0.022,0.033H16.959z"/>
        <path fill="#066C9A" d="M0,0v32h32V0H0z M11.633,23.646H8.202V13.33h3.431V23.646z M9.917,11.922H9.895
                C8.744,11.922,8,11.127,8,10.139c0-1.014,0.768-1.785,1.939-1.785c1.174,0,1.896,0.771,1.918,1.785
                C11.857,11.127,11.113,11.922,9.917,11.922z M24,23.646h-3.43v-5.52c0-1.386-0.496-2.333-1.738-2.333
                c-0.946,0-1.512,0.641-1.76,1.256c-0.091,0.221-0.113,0.527-0.113,0.835v5.762H13.53c0,0,0.044-9.349,0-10.316h3.429v1.461
                c0.457-0.703,1.271-1.703,3.092-1.703c2.256,0,3.949,1.475,3.949,4.644V23.646z"/>
</g>
</svg>
