<?xml version="1.0" encoding="utf-8"?>
<!-- Generator: Adobe Illustrator 16.0.0, SVG Export Plug-In . SVG Version: 6.00 Build 0)  -->
<!DOCTYPE svg PUBLIC "-//W3C//DTD SVG 1.1//EN" "http://www.w3.org/Graphics/SVG/1.1/DTD/svg11.dtd">
<svg version="1.1" id="Layer_1" xmlns="http://www.w3.org/2000/svg" xmlns:xlink="http://www.w3.org/1999/xlink" x="0px" y="0px"
         width="93.142px" height="78.707px" viewBox="0 0 93.142 78.707" enable-background="new 0 0 93.142 78.707" xml:space="preserve">
<g>
        <path fill="#FFFFFF" d="M14.665,6.628c0.879-0.537,1.621-0.034,2.622-0.268c0.38-0.09,0.58-0.198,0.962-0.279
                c1.715-0.364,2.785,0.046,4.466,0.551c0.674,0.204,1.066,0.312,1.688,0.64c0.11,0.057,0.18,0.085,0.285,0.157
                c0.1,0.064,0.148,0.11,0.239,0.188c1.454,1.237,0.543,2.939,0.981,4.801c0.035,0.159,0.065,0.247,0.097,0.408
                c0.015,0.092,0.027,0.142,0.039,0.233c0.062,0.57-0.094,0.908-0.313,1.438c-0.021,0.056-0.035,0.087-0.061,0.143
                c-0.351,0.742-0.982,0.827-1.612,1.358c-0.552,0.469-0.831,0.771-1.411,1.199c-0.402,0.295-0.623,0.477-1.062,0.712
                c-0.521,0.28-0.86,0.34-1.409,0.559c-0.696,0.278-1.134,0.345-1.788,0.717c-0.137,0.079-0.213,0.127-0.351,0.213
                c-0.079,0.053-0.127,0.079-0.208,0.133c-0.229,0.155-0.346,0.264-0.562,0.434c-0.282,0.218-0.447,0.333-0.72,0.56
                c-0.502,0.407-0.784,0.641-1.231,1.108c-0.198,0.206-0.308,0.326-0.493,0.547c-0.275,0.325-0.42,0.521-0.666,0.872
                c-0.069,0.101-0.104,0.159-0.176,0.259c-0.019,0.026-0.032,0.043-0.055,0.07c-0.035,0.046-0.052,0.069-0.089,0.116
                c-0.17,0.21-0.276,0.322-0.45,0.533c-0.015,0.017-0.021,0.028-0.036,0.048c-0.104,0.112-0.16,0.195-0.302,0.242
                c-0.01,0.002-0.017,0.004-0.029,0.008c-0.331,0.101-0.522,0.175-0.811,0.37c-0.116,0.08-0.155,0.166-0.286,0.221
                c-0.015,0.007-0.026,0.007-0.037,0.015c-0.023,0.016-0.028,0.031-0.045,0.051c-0.024,0.025-0.035,0.038-0.058,0.067
                c-0.02,0.026-0.014,0.068-0.048,0.069c-0.042,0.002-0.029-0.058-0.038-0.095c-0.004-0.021-0.004-0.033-0.011-0.057
                c-0.01-0.029-0.025-0.044-0.041-0.071c-0.014-0.026-0.027-0.041-0.034-0.068c-0.013-0.052,0.012-0.082,0.016-0.134
                c0.005-0.048,0.005-0.074,0.007-0.121c0-0.07,0-0.11,0.008-0.18c0.008-0.078-0.005-0.131,0.035-0.198
                c0.017-0.028,0.029-0.038,0.05-0.065c0.327-0.414,0.521-0.651,0.757-1.123c0.211-0.416,0.275-0.678,0.415-1.12
                c0.013-0.035,0.02-0.056,0.029-0.091c0.317-1.035,0.215-1.706,0.056-2.777c-0.043-0.291-0.068-0.456-0.146-0.738
                c-0.02-0.08-0.036-0.125-0.058-0.201c-0.274-0.931-0.264-1.534-0.766-2.363c-0.083-0.138-0.178-0.194-0.229-0.347
                c-0.065-0.193,0-0.319-0.008-0.526c-0.05-0.917-0.52-1.391-0.479-2.312c0.033-0.7,0.328-1.055,0.422-1.751
                c0.019-0.142,0.031-0.221,0.043-0.361c0.006-0.083-0.01-0.129,0.015-0.209c0.021-0.087,0.062-0.127,0.107-0.207
                c0.585-1.1,1.034-1.671,1.904-2.561C14.115,7.108,14.267,6.872,14.665,6.628L14.665,6.628z"/>
        <path fill="#FFFFFF" d="M44.082,0.01c1.608,0.139,1.614,2.028,3.012,2.837c0.541,0.312,0.918,0.349,1.449,0.675
                c2.582,1.579,2.659,4.061,3.312,7.015c0.29,1.315,0.431,2.083,0.403,3.428c-0.004,0.256,0.002,0.404-0.029,0.661
                c-0.03,0.261-0.074,0.402-0.132,0.657c-1.015,4.458-4.627,5.452-7.469,9.03c-0.219,0.275-0.333,0.438-0.561,0.709
                c-0.126,0.148-0.194,0.233-0.331,0.376c-0.779,0.831-1.395,1.139-2.425,1.638c-0.097,0.047-0.154,0.074-0.254,0.119
                c-1.151,0.49-1.96-0.006-3.214-0.006c-1.047,0-1.642,0.089-2.685,0.004c-0.669-0.057-1.06-0.056-1.707-0.236
                c-0.716-0.204-1.061-0.484-1.74-0.792c-0.841-0.381-1.261-0.761-2.161-0.969c-0.191-0.045-0.302-0.062-0.496-0.095
                c-0.119-0.021-0.188-0.033-0.304-0.049c-0.345-0.045-0.544-0.023-0.891-0.035c-0.436-0.02-0.681-0.041-1.115-0.041
                c-0.788-0.003-1.239,0-2.017,0.119c-0.35,0.053-0.544,0.092-0.889,0.171c-0.515,0.121-0.801,0.211-1.298,0.385
                c-0.142,0.05-0.222,0.085-0.361,0.132c-0.04,0.014-0.064,0.018-0.104,0.031c-0.067,0.021-0.104,0.027-0.17,0.046
                c-0.307,0.081-0.482,0.11-0.792,0.186c-0.025,0.009-0.042,0.013-0.066,0.019c-0.161,0.035-0.28,0.074-0.419-0.01
                c-0.015-0.009-0.017-0.012-0.026-0.017c-0.31-0.196-0.508-0.298-0.871-0.35c-0.147-0.019-0.244,0.048-0.379-0.017
                c-0.019-0.006-0.024-0.017-0.039-0.019c-0.029-0.008-0.044,0.009-0.072,0.015c-0.038,0.007-0.06,0.013-0.093,0.021
                c-0.037,0.013-0.06,0.05-0.098,0.036c-0.055-0.02,0.033-0.089,0.061-0.144c0.015-0.028,0.026-0.043,0.039-0.072
                c0.021-0.047,0.021-0.077,0.033-0.122c0.017-0.045,0.017-0.072,0.04-0.113c0.034-0.064,0.079-0.081,0.125-0.137
                c0.045-0.05,0.066-0.082,0.109-0.134c0.063-0.079,0.095-0.125,0.161-0.202c0.074-0.08,0.1-0.154,0.199-0.198
                c0.032-0.015,0.054-0.015,0.091-0.025c0.614-0.184,0.964-0.298,1.527-0.605c0.566-0.307,0.833-0.564,1.343-0.96
                c0.044-0.032,0.067-0.05,0.108-0.083c1.396-1.106,1.905-2.059,2.855-3.565c0.284-0.447,0.443-0.701,0.69-1.17
                c0.068-0.133,0.107-0.211,0.174-0.344c0.847-1.673,1.527-2.534,2.1-4.32c0.097-0.307,0.096-0.502,0.233-0.792
                c0.172-0.372,0.387-0.512,0.622-0.846c1.149-1.626,1.29-2.879,2.537-4.432c0.939-1.17,1.749-1.577,2.751-2.696
                c0.22-0.244,0.342-0.385,0.553-0.636c0.124-0.147,0.172-0.255,0.315-0.384c0.137-0.127,0.24-0.167,0.397-0.271
                c2.075-1.383,3.373-2.033,5.741-2.811C42.712,0.34,43.187-0.068,44.082,0.01L44.082,0.01z"/>
        <path fill="#FFFFFF" d="M92.598,29.005c2.559,3.453-4.698,5.282-5.618,9.479c-0.264,1.221-0.119,1.963-0.397,3.184
                c-1.681,7.438-8.319,8.799-14.883,12.686c-2.588,1.532-4.085,2.382-6.888,3.475c-0.511,0.201-0.794,0.325-1.316,0.488
                c-0.526,0.165-0.832,0.228-1.371,0.352c-7.536,1.761-12.053-1.16-19.773-1.686c-0.499-0.034-0.785-0.04-1.283-0.088
                c-0.27-0.023-0.42-0.035-0.687-0.073c-1.462-0.213-2.26-0.588-3.572-1.276c-0.121-0.062-0.187-0.094-0.303-0.165
                c-1.26-0.743-1.304-1.878-2.142-3.077c-0.693-0.998-1.184-1.499-1.781-2.555c-0.389-0.681-0.645-1.059-0.884-1.803
                c-0.276-0.862-0.201-1.404-0.332-2.299c-0.167-1.136-0.039-1.836-0.438-2.914c-0.085-0.223-0.142-0.348-0.239-0.566
                c-0.057-0.133-0.09-0.208-0.154-0.338c-0.186-0.366-0.343-0.546-0.563-0.896c-0.279-0.437-0.421-0.693-0.718-1.118
                c-0.529-0.755-0.829-1.187-1.484-1.834c-0.287-0.282-0.456-0.434-0.77-0.687c-0.458-0.374-0.738-0.56-1.243-0.87
                c-0.14-0.087-0.226-0.126-0.362-0.217c-0.04-0.024-0.062-0.041-0.102-0.066c-0.062-0.044-0.095-0.069-0.155-0.115
                c-0.277-0.213-0.423-0.351-0.698-0.568c-0.023-0.017-0.038-0.026-0.061-0.046c-0.145-0.124-0.252-0.218-0.267-0.409
                c-0.001-0.013-0.001-0.022-0.001-0.039c-0.02-0.465-0.042-0.749-0.251-1.166c-0.078-0.154-0.207-0.207-0.238-0.378
                c-0.005-0.021,0.003-0.038-0.005-0.06c-0.012-0.027-0.036-0.031-0.062-0.051c-0.031-0.026-0.048-0.045-0.083-0.067
                c-0.033-0.023-0.076-0.013-0.094-0.052c-0.034-0.066,0.103-0.062,0.171-0.092c0.036-0.018,0.061-0.019,0.097-0.036
                c0.058-0.028,0.081-0.059,0.136-0.092c0.049-0.031,0.073-0.059,0.129-0.08c0.076-0.027,0.13-0.01,0.213-0.021
                c0.076-0.011,0.12-0.021,0.199-0.035c0.117-0.022,0.183-0.04,0.299-0.054c0.125-0.013,0.209-0.07,0.321-0.016
                c0.04,0.017,0.055,0.038,0.089,0.059c0.592,0.403,0.952,0.62,1.631,0.853c0.719,0.242,1.163,0.229,1.915,0.315
                c0.062,0.008,0.1,0.014,0.162,0.019c2.403,0.251,3.788-0.342,6.119-0.976c0.786-0.211,1.227-0.345,1.994-0.618
                c0.227-0.081,0.355-0.131,0.579-0.217c3.098-1.153,4.964-1.549,7.891-3.079c0.579-0.3,0.858-0.566,1.467-0.805
                c0.724-0.284,1.189-0.255,1.946-0.433c4.272-1.018,6.391-2.682,10.703-3.511c3.427-0.661,5.459-0.306,8.913-0.804
                c0.848-0.121,1.323-0.196,2.168-0.342c0.518-0.088,0.803-0.217,1.328-0.238c0.444-0.021,0.697,0.046,1.141,0.086
                c5.929,0.509,9.384,1.149,14.843,3.512C89.747,27.412,91.358,27.33,92.598,29.005L92.598,29.005z"/>
        <path fill="#FFFFFF" d="M16.079,78.592c-3.401-0.666-1.72-5.172-3.362-8.224c-0.394-0.729-0.675-1.113-1.056-1.849
                c-2.059-3.939-2.206-6.611-3.097-10.961c-0.305-1.479-0.481-2.314-0.685-3.809c-0.036-0.263-0.059-0.407-0.085-0.671
                c-0.026-0.254-0.036-0.4-0.051-0.657c-0.213-3.387,0.688-5.265,1.07-8.64c0.028-0.25,0.04-0.392,0.072-0.643
                c0.017-0.133,0.025-0.209,0.047-0.342c0.111-0.687,0.252-1.064,0.536-1.7c0.024-0.055,0.036-0.086,0.065-0.14
                c0.247-0.47,0.696-0.452,1.144-0.743c0.412-0.268,0.612-0.481,1.058-0.689c0.296-0.143,0.465-0.246,0.789-0.289
                c0.403-0.055,0.63,0.086,1.03,0.138c0.562,0.076,0.884,0.28,1.44,0.187c0.125-0.021,0.192-0.04,0.314-0.071
                c0.074-0.02,0.119-0.029,0.193-0.055c0.219-0.07,0.327-0.156,0.538-0.259c0.278-0.134,0.438-0.2,0.707-0.349
                c0.531-0.292,0.829-0.472,1.289-0.868c0.223-0.191,0.341-0.311,0.544-0.523c0.323-0.34,0.484-0.551,0.764-0.929
                c0.082-0.111,0.119-0.18,0.203-0.289c0.022-0.029,0.036-0.048,0.062-0.077c0.038-0.049,0.064-0.075,0.104-0.121
                c0.196-0.224,0.319-0.337,0.519-0.556c0.017-0.02,0.025-0.031,0.043-0.049c0.11-0.109,0.192-0.206,0.35-0.195
                c0.012,0,0.018,0.002,0.029,0.004c0.371,0.037,0.604,0.037,0.952-0.098c0.142-0.056,0.193-0.173,0.348-0.18
                c0.018-0.003,0.029,0.005,0.05,0c0.028-0.009,0.031-0.034,0.054-0.053c0.027-0.027,0.047-0.042,0.068-0.073
                c0.027-0.033,0.021-0.072,0.062-0.085c0.067-0.025,0.033,0.105,0.044,0.177c0.006,0.036,0.004,0.059,0.012,0.094
                c0.012,0.058,0.034,0.086,0.053,0.145c0.017,0.051,0.033,0.078,0.041,0.135c0.011,0.078-0.017,0.126-0.022,0.207
                c-0.004,0.075-0.004,0.12-0.006,0.196c-0.007,0.113,0,0.181-0.015,0.294c-0.011,0.123,0.021,0.208-0.046,0.31
                c-0.021,0.035-0.04,0.045-0.064,0.073c-0.434,0.494-0.672,0.791-0.967,1.371c-0.311,0.601-0.372,0.989-0.561,1.636
                c-0.017,0.054-0.023,0.083-0.039,0.136c-0.564,2.007-0.345,3.255-0.252,5.336c0.032,0.691,0.058,1.084,0.138,1.773
                c0.021,0.207,0.038,0.323,0.062,0.53c0.348,2.821,0.361,4.447,0.982,7.223c0.128,0.575,0.284,0.885,0.357,1.472
                c0.074,0.618-0.009,0.976,0,1.598c0.045,3.629,1.042,5.644,0.82,9.263c-0.133,2.223-0.674,3.428-0.863,5.647
                c-0.048,0.551-0.069,0.858-0.098,1.41c-0.019,0.344,0.062,0.551-0.036,0.878c-0.06,0.2-0.134,0.3-0.229,0.487
                c-0.928,1.815-1.823,3.271-3.841,3.537C17.048,78.743,16.684,78.712,16.079,78.592L16.079,78.592z"/>
        <path fill="#FFFFFF" d="M0.233,46.207c-0.725-1.53,0.464-2.618,0.546-4.312c0.023-0.468,0.003-0.734,0.031-1.202
                c0.143-2.457,0.691-3.793,1.375-6.156c0.25-0.867,0.389-1.357,0.695-2.205c0.055-0.151,0.081-0.235,0.14-0.384
                c0.054-0.142,0.091-0.221,0.148-0.36c0.796-1.803,1.807-2.497,2.927-4.114c0.094-0.134,0.14-0.211,0.236-0.34
                c0.05-0.069,0.076-0.112,0.129-0.179c0.256-0.324,0.441-0.486,0.792-0.705c0.031-0.021,0.046-0.031,0.077-0.048
                c0.281-0.141,0.462,0.174,0.757,0.28c0.278,0.104,0.457,0.112,0.714,0.262c0.193,0.107,0.304,0.178,0.457,0.342
                c0.233,0.246,0.249,0.471,0.408,0.771c0.222,0.419,0.251,0.726,0.574,1.071c0.061,0.067,0.101,0.103,0.167,0.165
                c0.042,0.038,0.063,0.062,0.104,0.096c0.121,0.097,0.209,0.124,0.343,0.202c0.175,0.102,0.27,0.171,0.453,0.26
                c0.347,0.172,0.552,0.269,0.929,0.339c0.18,0.035,0.283,0.044,0.466,0.051c0.287,0.01,0.453-0.007,0.743-0.053
                c0.085-0.014,0.131-0.026,0.219-0.039c0.023-0.002,0.037-0.002,0.061-0.007c0.039-0.001,0.062-0.001,0.101-0.001
                c0.189-0.004,0.296,0.012,0.486,0.012c0.019,0,0.026,0,0.044,0c0.107,0.009,0.192,0.028,0.25,0.12
                c0.005,0.009,0.009,0.016,0.014,0.023c0.149,0.267,0.24,0.438,0.492,0.606c0.092,0.061,0.182,0.044,0.247,0.129
                c0.012,0.015,0.012,0.027,0.022,0.036c0.018,0.012,0.033,0.005,0.053,0.006c0.025,0.002,0.042,0.006,0.064,0.004
                c0.027-0.002,0.043-0.021,0.071-0.013c0.057,0.019-0.034,0.091-0.062,0.145c-0.013,0.025-0.025,0.04-0.037,0.066
                c-0.022,0.047-0.023,0.077-0.04,0.124c-0.018,0.044-0.02,0.074-0.045,0.114c-0.029,0.051-0.063,0.065-0.102,0.111
                c-0.037,0.044-0.06,0.068-0.095,0.115c-0.054,0.068-0.081,0.108-0.138,0.171c-0.059,0.062-0.073,0.142-0.16,0.155
                c-0.023,0.001-0.038-0.002-0.063-0.002c-0.412-0.003-0.656,0.014-1.042,0.153c-0.403,0.145-0.585,0.329-0.936,0.575
                c-0.027,0.019-0.045,0.032-0.073,0.053c-1.099,0.793-1.427,1.58-2.152,2.728c-0.235,0.375-0.362,0.59-0.573,0.979
                c-0.062,0.117-0.096,0.184-0.158,0.301c-0.778,1.496-1.326,2.294-1.951,3.862C7.816,40.83,7.799,41.03,7.632,41.33
                c-0.146,0.269-0.288,0.389-0.468,0.639c-0.986,1.401-1.007,2.565-2.183,3.806c-0.571,0.6-1.053,0.767-1.621,1.362
                c-0.141,0.143-0.217,0.228-0.345,0.378c-0.079,0.092-0.09,0.194-0.203,0.245c-0.064,0.028-0.108,0.021-0.18,0.031
                c-0.806,0.111-1.377-0.208-1.926-0.811C0.471,46.717,0.384,46.528,0.233,46.207L0.233,46.207z"/>
</g>
</svg>
